<svg width="76" height="76" viewBox="0 0 76 76" fill="none" xmlns="http://www.w3.org/2000/svg">
<path d="M27.5999 38.1766L62.948 2.83376C65.8225 -0.0409411 70.4695 -0.0409411 73.344 2.83376C76.2185 5.70846 76.2185 10.3559 73.344 13.2306L37.9959 48.5735L27.5999 38.1766Z" fill="#FBBB4A"/>
<path d="M2.65586 73.5284C-0.21862 70.6537 -0.21862 66.0063 2.65586 63.1316L23.4479 42.3379L33.844 52.7347L13.0519 73.5284C10.1774 76.3951 5.52236 76.3951 2.65586 73.5284Z" fill="white"/>
<path d="M58.6922 27.8762C53.0151 33.4659 43.9206 33.5058 38.1956 27.98L37.996 27.7804L26.5619 16.3455C23.6874 13.4708 19.0404 13.4708 16.1659 16.3455C13.2914 19.2202 13.2914 23.8676 16.1659 26.7423L27.5999 38.1772L37.996 48.5741L43.5054 43.0642L48.392 38.1772L58.6922 27.8762Z" fill="url(#paint0_linear_686_160)"/>
<path d="M61.6227 61.2772C58.7642 64.1359 54.0852 64.1359 51.2266 61.2772C48.3681 58.4185 48.3681 53.7391 51.2266 50.8804C54.0852 48.0216 58.7642 48.0216 61.6227 50.8804C64.4892 53.7391 64.4892 58.4185 61.6227 61.2772Z" fill="#FBBB4A"/>
<defs>
<linearGradient id="paint0_linear_686_160" x1="14.0111" y1="31.3855" x2="58.6956" y2="31.3855" gradientUnits="userSpaceOnUse">
<stop stop-color="#FBBB4A"/>
<stop offset="1" stop-color="#BD8522"/>
</linearGradient>
</defs>
</svg>
