<svg width="256" height="256" viewBox="0 0 256 256" fill="none" xmlns="http://www.w3.org/2000/svg">
<path d="M93.0601 127.57L213.31 7.31969C223.08 -2.45031 238.91 -2.45031 248.68 7.31969C258.45 17.0897 258.45 32.9197 248.68 42.6897L128.43 162.94L93.0601 127.57Z" fill="#E85626"/>
<path d="M198.85 92.5302C179.55 111.55 148.6 111.69 129.12 92.8802L128.45 92.2102H128.44L89.5203 53.3002C79.7503 43.5302 63.9203 43.5302 54.1503 53.3002C44.3803 63.0702 44.3803 78.9002 54.1503 88.6702L93.0503 127.57L93.0403 127.58L128.4 162.94L128.41 162.93L128.42 162.94L147.17 144.19L163.8 127.57L198.85 92.5302Z" fill="url(#paint0_linear_1761_369)"/>
<path d="M202.65 201.81C192.92 211.54 177.01 211.54 167.28 201.81C157.55 192.08 157.55 176.17 167.28 166.44C177.01 156.71 192.92 156.71 202.65 166.44C212.38 176.17 212.38 192.08 202.65 201.81Z" fill="#E85626"/>
<path d="M8.18004 247.789C-1.58996 238.019 -1.58996 222.189 8.18004 212.419L78.9 141.699L114.27 177.069L43.55 247.789C33.78 257.559 17.95 257.559 8.18004 247.789Z" fill="#E85626"/>
<defs>
<linearGradient id="paint0_linear_1761_369" x1="45.5125" y1="89.071" x2="187.981" y2="128" gradientUnits="userSpaceOnUse">
<stop stop-color="#E85626"/>
<stop offset="1" stop-color="#AE2825"/>
</linearGradient>
</defs>
</svg>
