<svg id="Layer_1" data-name="Layer 1" xmlns="http://www.w3.org/2000/svg" viewBox="0 0 99.21 70.87"><defs><style>.cls-1{fill:#f37068;}.cls-2{fill:#231f20;}</style></defs><title>Logo</title><path class="cls-1" d="M7.09,31V41H10.8V33.58h3.71V44.71h3.71V29.87h-10A1.12,1.12,0,0,0,7.09,31ZM44.2,39.14V41H40.49V37.29h2V33.58H33.07V29.86h3.71v1.68h3.71V27.28a1.13,1.13,0,0,0-1.12-1.13H30.48a1.13,1.13,0,0,0-1.12,1.13V41H25.64V27.28a1.13,1.13,0,0,0-1.12-1.13h-6.3v3.71h3.71V44.71H33.07V37.29h3.71v6.3a1.12,1.12,0,0,0,1.12,1.12h8.89a1.12,1.12,0,0,0,1.12-1.12V39.14Z"/><path class="cls-2" d="M57,30.1l.06,1.06v3.76H55.18V26.15h1.75L59.63,31l-.07-1.07V26.15h1.88v8.77H59.69Z"/><path class="cls-2" d="M65.83,35.05c-2.26,0-3.13-.88-3.13-2.26V31c0-1.63.87-2.51,3.13-2.51S69,29.16,69,30.91v1.44H64.57v.32c0,.44.19.5,1.26.5s1.25,0,1.25-.25H69V33C69,34.36,68.21,35.05,65.83,35.05Zm-1.26-3.82h2.51v-.32c0-.37-.25-.5-1.25-.5s-1.26.13-1.26.63Z"/><path class="cls-2" d="M72.09,34.92H70.21V34.3a3,3,0,0,1,1.45-2.56,2.79,2.79,0,0,1-1.45-2.45v-.63h1.88v.63c0,.72.09,1.15,1.25,1.7,1.17-.55,1.25-1,1.25-1.7v-.63h1.88v.63A2.79,2.79,0,0,1,75,31.74a3,3,0,0,1,1.45,2.56v.62H74.59V34.3c0-.73-.08-1.24-1.25-1.82-1.16.58-1.25,1.09-1.25,1.82Z"/><path class="cls-2" d="M81.61,34.92h-2A1.66,1.66,0,0,1,77.72,33V28.77l.38-1.36h1.5v1.25h2v1.88h-2v1.88c0,.5.25.62.63.62h1.38Z"/><path class="cls-2" d="M82.73,26.15h1.88V28H82.73Zm0,2.51h1.88v6.26H82.73Z"/><path class="cls-2" d="M88.06,31.35c1.27,0,2,.27,2.19.7V30.91c0-.56-.19-.62-1.25-.62s-1.26.12-1.26.44v.12H85.86V30.6c0-1.38.76-2.07,3.14-2.07s3.13.88,3.13,2.26v4.13H90.5l-.19-1c-.13.69-.81,1.13-2.25,1.13s-2.32-.48-2.32-1.82S86.55,31.35,88.06,31.35ZM90.25,33c0-.19-.32-.37-1.76-.37-.62,0-.87.06-.87.37s.25.38.87.38C89.93,33.42,90.25,33.23,90.25,33Z"/><path class="cls-2" d="M57,39.89,57.06,41v3.76H55.18V35.94h1.75l2.7,4.83-.07-1.07V35.94h1.88v8.77H59.69Z"/><path class="cls-2" d="M62.7,35.94H69v1.88H64.57v2.51h3.76v1.88H64.57v2.5H62.7Z"/><path class="cls-2" d="M72.4,37.82H69.9V35.94h6.88v1.88h-2.5v6.89H72.4Z"/></svg>