<svg id="Layer_1" data-name="Layer 1" xmlns="http://www.w3.org/2000/svg" viewBox="0 0 99.21 70.87"><defs><style>.cls-1{fill:#00a7a0;}.cls-2{fill:#f26522;}</style></defs><title>Logo</title><path class="cls-1" d="M14,30a7.15,7.15,0,0,1,6.9,5.31,7.27,7.27,0,0,1-.76,5.23,6.79,6.79,0,0,1-2.56,2.57A7,7,0,0,1,14,44,6.62,6.62,0,0,1,9.12,42a7.07,7.07,0,0,1,.26-10.17A6.7,6.7,0,0,1,14,30Zm.05,3.15a3.46,3.46,0,0,0-2.6,1.09,3.86,3.86,0,0,0-1,2.78,4,4,0,0,0,1,2.82,3.42,3.42,0,0,0,2.6,1.08,3.47,3.47,0,0,0,2.62-1.09,3.93,3.93,0,0,0,1-2.81,3.87,3.87,0,0,0-1-2.79A3.48,3.48,0,0,0,14.06,33.14Z"/><path class="cls-1" d="M22.82,30h3a.17.17,0,0,1,.17.17v1.18a.18.18,0,0,0,.29.13,7.19,7.19,0,0,1,1.78-1.1A4.94,4.94,0,0,1,30,30a4.57,4.57,0,0,1,3.37,1.39,4.72,4.72,0,0,1,1.16,3.48v9a.17.17,0,0,1-.17.18h-3a.18.18,0,0,1-.17-.18V37.92A15,15,0,0,0,31,34.75a2.26,2.26,0,0,0-.75-1.2,2.12,2.12,0,0,0-1.32-.41,2.47,2.47,0,0,0-1.74.68,3.64,3.64,0,0,0-1,1.88A14.9,14.9,0,0,0,26,38.41v5.44a.17.17,0,0,1-.17.18h-3a.18.18,0,0,1-.18-.18V30.16A.18.18,0,0,1,22.82,30Z"/><path class="cls-1" d="M51.33,26.84h3a.18.18,0,0,1,.18.17v2.81a.17.17,0,0,0,.17.17h1.64a.17.17,0,0,1,.17.17V33a.17.17,0,0,1-.17.17H54.68a.17.17,0,0,0-.17.17V43.85a.18.18,0,0,1-.18.18h-3a.17.17,0,0,1-.17-.18V33.31a.18.18,0,0,0-.18-.17H49.61a.18.18,0,0,1-.17-.17V30.16a.18.18,0,0,1,.17-.17H51a.18.18,0,0,0,.18-.17V27A.17.17,0,0,1,51.33,26.84Z"/><path class="cls-1" d="M63,30a7.15,7.15,0,0,1,6.9,5.31,7.27,7.27,0,0,1-.76,5.23,6.72,6.72,0,0,1-2.56,2.57A7,7,0,0,1,63,44,6.63,6.63,0,0,1,58.11,42a7.07,7.07,0,0,1,.26-10.17A6.74,6.74,0,0,1,63,30Zm.06,3.15a3.46,3.46,0,0,0-2.6,1.09,3.82,3.82,0,0,0-1,2.78,3.94,3.94,0,0,0,1,2.82,3.68,3.68,0,0,0,5.22,0,4.29,4.29,0,0,0,0-5.6A3.45,3.45,0,0,0,63.06,33.14Z"/><path class="cls-1" d="M91.8,38.59a.18.18,0,0,0,.17-.14A7,7,0,0,0,92.13,37a6.82,6.82,0,0,0-.19-1.57,6.85,6.85,0,0,0-3.34-4.49,7.08,7.08,0,0,0-3.55-1,7,7,0,0,0-6.92,7,6.74,6.74,0,0,0,2,5A6.62,6.62,0,0,0,85.06,44a7,7,0,0,0,3.57-.93,6.73,6.73,0,0,0,2.19-2,.18.18,0,0,0-.07-.26L88,39.49a2.6,2.6,0,0,1-.25.33,3.47,3.47,0,0,1-2.62,1.09,3.42,3.42,0,0,1-2.6-1.08,3.51,3.51,0,0,1-.67-1,.17.17,0,0,1,.16-.24H91.8ZM82,35.43a.17.17,0,0,1-.16-.24,3.62,3.62,0,0,1,.65-1,3.69,3.69,0,0,1,5.23,0,3.51,3.51,0,0,1,.65,1,.17.17,0,0,1-.16.24Z"/><path class="cls-1" d="M78.89,30a4.86,4.86,0,0,0-1.83.37,7.5,7.5,0,0,0-1.78,1.1.17.17,0,0,1-.29-.13V30H71.64V44H75V38.41a15.24,15.24,0,0,1,.14-2.71,3.61,3.61,0,0,1,1-1.88,2.41,2.41,0,0,1,1.74-.68h0a.09.09,0,0,0,.08-.06l1.06-2.85A.18.18,0,0,0,78.89,30Z"/><path class="cls-2" d="M37.58,28.42a1.55,1.55,0,0,0-.45-1.12,1.55,1.55,0,0,0-2.65,1.09,1.58,1.58,0,0,0,.46,1.13,1.47,1.47,0,0,0,1.11.47,1.44,1.44,0,0,0,1.08-.46A1.51,1.51,0,0,0,37.58,28.42Z"/><path class="cls-2" d="M41.19,35.79l7.38,7.37a2.89,2.89,0,0,0,.54-.67,3.07,3.07,0,0,0-.49-3.72l-5.34-5.34a.17.17,0,0,1,.13-.29H47.8a.34.34,0,0,0,.34-.34V30.33A.34.34,0,0,0,47.8,30h-5a3.09,3.09,0,0,0-3,2.28,3.21,3.21,0,0,0,.89,3.06l4,4,.29.28,3.59,3.59h0Z"/><path class="cls-2" d="M43.63,40.64,38,37.29a.33.33,0,0,0-.51.24L36.6,43.6A.37.37,0,0,0,37,44h9.37a3.36,3.36,0,0,0,2-.64l-4.56-2.7Z"/></svg>