<svg width="164" height="91" viewBox="0 0 164 91" fill="none" xmlns="http://www.w3.org/2000/svg">
<path d="M95.0893 56.3045V48.5657H86.7134V36.3828H79.0228V48.5657H75.2612V48.8109C75.6115 49.0867 75.9618 49.4085 76.2816 49.7303C77.9872 51.4007 79.3578 53.4235 80.3325 55.7528C81.3223 58.0974 81.8249 60.6873 81.8249 63.4916C81.8249 66.1427 81.3223 68.6559 80.3325 70.9852C80.3172 71.0312 80.302 71.0619 80.2868 71.1078C80.9721 72.579 81.8706 73.8815 82.9975 75.0155C84.2311 76.2568 85.6626 77.2376 87.3073 77.9425C88.952 78.6474 90.7033 79.0152 92.5765 79.0152H95.0893V71.2764H92.5765C91.7694 71.2764 91.0079 71.1232 90.2769 70.8013C89.5612 70.4949 88.9368 70.0658 88.419 69.5447C87.886 69.0084 87.4748 68.3954 87.1702 67.6752C86.8657 66.9703 86.7134 66.204 86.7134 65.3918V56.3045H95.0893Z" fill="white"/>
<path d="M128.974 40.2148C128.974 40.935 128.836 41.6093 128.562 42.2376C128.288 42.8659 127.923 43.4176 127.451 43.8773C126.979 44.337 126.43 44.7202 125.791 44.9807C125.151 45.2565 124.481 45.3944 123.765 45.3944C123.049 45.3944 122.379 45.2565 121.74 44.9807C121.1 44.7048 120.567 44.337 120.095 43.8773C119.638 43.4176 119.257 42.8659 118.999 42.2376C118.724 41.6093 118.587 40.935 118.587 40.2148C118.587 39.5099 118.724 38.8509 118.999 38.2073C119.273 37.579 119.638 37.0273 120.095 36.5523C120.552 36.0925 121.1 35.7248 121.74 35.4489C122.364 35.1731 123.049 35.0352 123.765 35.0352C124.481 35.0352 125.151 35.1731 125.791 35.4489C126.415 35.7248 126.979 36.0925 127.451 36.5523C127.923 37.012 128.288 37.5637 128.562 38.2073C128.836 38.8509 128.974 39.5099 128.974 40.2148ZM127.633 79.0008H119.851V48.5053H127.633V79.0008Z" fill="white"/>
<path d="M99.4295 62.1445C99.4295 60.2597 99.7798 58.4974 100.496 56.8423C101.196 55.1873 102.171 53.7468 103.404 52.5055C104.638 51.2642 106.085 50.2835 107.714 49.5786C109.359 48.8736 111.11 48.5059 112.983 48.5059H115.511V56.2447H112.983C112.176 56.2447 111.415 56.3979 110.684 56.7197C109.968 57.0262 109.344 57.4553 108.811 57.9916C108.278 58.528 107.866 59.141 107.562 59.8612C107.257 60.5661 107.105 61.3324 107.105 62.1599V79.0167H99.4143V62.1445H99.4295Z" fill="white"/>
<path d="M162.751 56.8579C161.914 54.8811 160.772 53.1801 159.325 51.7549C157.878 50.3451 156.188 49.2417 154.238 48.4755C152.289 47.7093 150.218 47.3262 147.979 47.3262C145.771 47.3262 143.7 47.7399 141.751 48.5521C141.02 48.8586 140.319 49.2264 139.649 49.6248V48.4908H131.958V90.6635H139.649V77.2393C140.319 77.6378 141.004 78.0056 141.751 78.3274C143.7 79.1549 145.771 79.5686 147.979 79.5686C150.203 79.5686 152.289 79.1549 154.238 78.3274C156.188 77.4998 157.878 76.3658 159.325 74.9407C160.772 73.5002 161.914 71.8145 162.751 69.8377C163.589 67.8761 164.015 65.7461 164.015 63.4781C164 61.0568 163.589 58.8501 162.751 56.8579ZM155.594 66.8647C155.152 67.8915 154.558 68.765 153.812 69.4852C153.066 70.2055 152.182 70.7725 151.177 71.1709C150.172 71.5693 149.106 71.7685 147.979 71.7685C146.837 71.7685 145.771 71.554 144.766 71.1249C143.761 70.6958 142.893 70.1135 142.147 69.3779C141.4 68.6424 140.822 67.7689 140.395 66.7575C139.969 65.7461 139.756 64.658 139.756 63.4781C139.756 62.2215 139.969 61.0875 140.395 60.076C140.822 59.0646 141.4 58.1911 142.147 57.4556C142.893 56.72 143.761 56.1683 144.766 55.7699C145.771 55.3868 146.837 55.1876 147.979 55.1876C149.106 55.1876 150.187 55.3868 151.177 55.7699C152.182 56.153 153.051 56.72 153.812 57.4556C154.558 58.1911 155.152 59.0646 155.594 60.076C156.035 61.0875 156.249 62.2215 156.249 63.4781C156.249 64.7193 156.035 65.838 155.594 66.8647Z" fill="white"/>
<path d="M107.09 48.5059H99.4294V79.0014H107.09V48.5059Z" fill="white"/>
<path d="M30.5034 43.1569L70.3117 3.11431C73.5403 -0.134457 78.779 -0.134457 82.0228 3.11431C85.2513 6.36307 85.2513 11.6347 82.0228 14.8987L42.2144 54.9413L30.5034 43.1569Z" fill="#FBBB4A"/>
<path d="M2.42139 83.1996C-0.807132 79.9509 -0.807132 74.6793 2.42139 71.4152L25.8282 47.877L37.5392 59.6614L14.1324 83.1996C10.9039 86.4484 5.64992 86.4484 2.42139 83.1996Z" fill="#FBBB4A"/>
<path d="M65.5148 31.4946C59.1339 37.8236 48.8848 37.8695 42.443 31.6172L42.2145 31.3873L29.3309 18.4229C26.1024 15.1741 20.8636 15.1741 17.6199 18.4229C14.3914 21.6717 14.3914 26.9433 17.6199 30.2073L30.4883 43.1564L42.1841 54.9255L48.3823 48.6885L53.8799 43.1564L65.5148 31.4946Z" fill="url(#paint0_linear_686_132)"/>
<path d="M77.7282 56.8423C76.8906 54.8655 75.7485 53.1645 74.3017 51.7393C72.855 50.3294 71.1646 49.2261 69.2153 48.4599C67.266 47.6937 65.1948 47.3105 62.9562 47.3105C60.748 47.3105 58.6769 47.7243 56.7276 48.5365C54.7783 49.3487 53.0879 50.4827 51.6259 51.9079C50.1639 53.3483 49.0218 55.0494 48.1842 57.0262C47.3466 59.003 46.9202 61.1485 46.9202 63.4624C46.9202 65.7458 47.3466 67.8605 48.1842 69.822C49.0218 71.7836 50.1639 73.4846 51.6259 74.9251C53.0726 76.3655 54.7783 77.4842 56.7276 78.3117C58.6769 79.1393 60.748 79.553 62.9562 79.553C65.1796 79.553 67.266 79.1393 69.2153 78.3117C71.1646 77.4842 72.855 76.3502 74.3017 74.9251C75.7485 73.4846 76.8906 71.7989 77.7282 69.822C78.5658 67.8605 78.9922 65.7304 78.9922 63.4624C78.9922 61.0412 78.5658 58.8345 77.7282 56.8423ZM68.8193 69.3317C65.606 72.5651 60.3368 72.5651 57.1083 69.3317C53.895 66.0982 53.895 60.796 57.1083 57.5472C60.3216 54.3138 65.5908 54.3138 68.8193 57.5472C72.0326 60.796 72.0326 66.0982 68.8193 69.3317Z" fill="#FBBB4A"/>
<defs>
<linearGradient id="paint0_linear_686_132" x1="15.2119" y1="35.4636" x2="65.5207" y2="35.4636" gradientUnits="userSpaceOnUse">
<stop stop-color="#FBBB4A"/>
<stop offset="1" stop-color="#BD8522"/>
</linearGradient>
</defs>
</svg>
