<svg width="76" height="76" viewBox="0 0 76 76" fill="none" xmlns="http://www.w3.org/2000/svg">
<path d="M27.6018 38.1809L62.9528 2.82992C65.825 -0.0422633 70.4787 -0.0422633 73.3509 2.82992C76.223 5.70209 76.223 10.3558 73.3509 13.228L37.9999 48.579L27.6018 38.1809Z" fill="#E85626"/>
<path d="M58.702 27.8803C53.0282 33.4718 43.9295 33.5129 38.2028 27.9832L38.0058 27.7862H38.0029L26.5612 16.3475C23.689 13.4753 19.0353 13.4753 16.1632 16.3475C13.291 19.2197 13.291 23.8734 16.1632 26.7455L27.599 38.1813L27.596 38.1843L37.9911 48.5794L37.9941 48.5764L37.997 48.5794L43.5091 43.0673L48.398 38.1813L58.702 27.8803Z" fill="url(#paint0_linear_1761_370)"/>
<path d="M59.8192 60.0063C56.9588 62.8667 52.2816 62.8667 49.4212 60.0063C46.5608 57.1458 46.5608 52.4686 49.4212 49.6082C52.2816 46.7478 56.9588 46.7478 59.8192 49.6082C62.6797 52.4686 62.6797 57.1458 59.8192 60.0063Z" fill="#E85626"/>
<path d="M2.64901 73.5222C-0.223171 70.6501 -0.223171 65.9964 2.64901 63.1242L23.4392 42.334L33.8373 52.732L13.0471 73.5222C10.1749 76.3944 5.52118 76.3944 2.64901 73.5222Z" fill="#E85626"/>
<defs>
<linearGradient id="paint0_linear_1761_370" x1="13.6238" y1="26.8634" x2="55.5067" y2="38.3077" gradientUnits="userSpaceOnUse">
<stop stop-color="#E85626"/>
<stop offset="1" stop-color="#AE2825"/>
</linearGradient>
</defs>
</svg>
