<svg width="166" height="91" viewBox="0 0 166 91" fill="none" xmlns="http://www.w3.org/2000/svg">
<path d="M96.1725 56.3045V48.561H87.7447V36.3691H79.9978V48.561H76.209V48.8045C76.5653 49.0867 76.9075 49.3971 77.2356 49.7182C78.9536 51.3903 80.3329 53.4188 81.3172 55.7435C82.312 58.0824 82.8165 60.6789 82.8165 63.487C82.8165 66.1398 82.312 68.6586 81.3172 70.9764C81.296 71.0152 81.2854 71.0575 81.2643 71.0963C81.9486 72.5674 82.8623 73.8762 83.9983 75.0051C85.24 76.2468 86.6864 77.2205 88.3374 77.9331C89.9884 78.6457 91.7558 79.002 93.6361 79.002H96.169V71.2586H93.6361C92.8176 71.2586 92.0521 71.1034 91.3254 70.7894C90.6057 70.479 89.9813 70.0556 89.4522 69.5265C88.9159 68.9903 88.4997 68.3729 88.1963 67.6603C87.8929 66.9477 87.7412 66.1822 87.7412 65.3708V56.3115H96.1725V56.3045Z" fill="#000"/>
<path d="M130.265 40.2174C130.265 40.9406 130.127 41.6144 129.852 42.2388C129.577 42.8668 129.203 43.41 128.727 43.8757C128.25 44.3414 127.696 44.7118 127.061 44.9869C126.426 45.2621 125.746 45.3997 125.026 45.3997C124.303 45.3997 123.625 45.2621 122.99 44.9869C122.355 44.7118 121.805 44.3414 121.339 43.8757C120.874 43.41 120.503 42.8632 120.228 42.2388C119.953 41.6109 119.815 40.9371 119.815 40.2174C119.815 39.5154 119.953 38.8451 120.228 38.2101C120.503 37.5751 120.874 37.0248 121.339 36.5591C121.805 36.0935 122.355 35.7231 122.99 35.4479C123.625 35.1727 124.306 35.0352 125.026 35.0352C125.746 35.0352 126.426 35.1727 127.061 35.4479C127.696 35.7231 128.254 36.0935 128.727 36.5591C129.199 37.0248 129.577 37.5751 129.852 38.2101C130.127 38.8451 130.265 39.5154 130.265 40.2174ZM128.924 79.0015H121.092V48.5041H128.924V79.0015Z" fill="#000"/>
<path d="M100.533 62.1422C100.533 60.2619 100.889 58.498 101.602 56.847C102.314 55.1961 103.292 53.7461 104.533 52.5044C105.775 51.2591 107.225 50.2819 108.876 49.5728C110.527 48.8602 112.294 48.5039 114.171 48.5039H116.708V56.2508H114.171C113.356 56.2508 112.587 56.4061 111.864 56.72C111.141 57.034 110.516 57.4573 109.984 57.9865C109.451 58.5192 109.035 59.1401 108.731 59.8527C108.428 60.5653 108.276 61.3273 108.276 62.1457V79.0049H100.529V62.1422H100.533Z" fill="#000"/>
<path d="M164.251 56.8609C163.408 54.8783 162.258 53.1779 160.805 51.7633C159.351 50.3486 157.647 49.2586 155.693 48.4895C153.739 47.7205 151.643 47.3359 149.403 47.3359C147.184 47.3359 145.096 47.7452 143.141 48.5601C142.397 48.8705 141.702 49.2409 141.032 49.6396V48.5036H133.285V90.6779H141.032V77.2442C141.702 77.6464 142.4 78.0168 143.141 78.3308C145.096 79.1563 147.184 79.569 149.403 79.569C151.643 79.569 153.739 79.1563 155.693 78.3308C157.647 77.5053 159.351 76.3764 160.805 74.9406C162.258 73.5083 163.408 71.808 164.251 69.843C165.094 67.878 165.518 65.7579 165.518 63.4789C165.518 61.0518 165.098 58.8435 164.251 56.8609ZM157.058 66.8691C156.621 67.8957 156.025 68.767 155.27 69.4902C154.515 70.2134 153.633 70.7708 152.624 71.1694C151.615 71.5681 150.539 71.7692 149.399 71.7692C148.256 71.7692 147.184 71.554 146.175 71.1271C145.166 70.7002 144.288 70.1146 143.547 69.3773C142.803 68.6365 142.217 67.7652 141.79 66.7562C141.363 65.7508 141.148 64.6572 141.148 63.4825C141.148 62.2301 141.363 61.0942 141.79 60.0782C142.217 59.0622 142.803 58.1908 143.547 57.4571C144.291 56.7268 145.166 56.1659 146.175 55.7779C147.184 55.3898 148.26 55.1958 149.399 55.1958C150.542 55.1958 151.615 55.3898 152.624 55.7779C153.633 56.1659 154.515 56.7268 155.27 57.4571C156.025 58.1873 156.621 59.0622 157.058 60.0782C157.496 61.0942 157.714 62.2266 157.714 63.4825C157.718 64.7172 157.499 65.8461 157.058 66.8691Z" fill="#000"/>
<path d="M108.241 48.5039H100.533V79.0013H108.241V48.5039Z" fill="#000"/>
<path d="M31.1841 43.1623L71.2311 3.11522C74.4837 -0.137365 79.7577 -0.137365 83.0103 3.11522C86.2629 6.36781 86.2629 11.6418 83.0103 14.8944L42.9632 54.9414L31.1841 43.1623Z" fill="#E85626"/>
<path d="M2.91991 83.2015C-0.332678 79.9489 -0.332678 74.6749 2.91991 71.4224L26.4712 47.8711L38.2503 59.6503L14.6991 83.2015C11.4465 86.4541 6.1725 86.4541 2.91991 83.2015Z" fill="#E85626"/>
<path d="M66.4161 31.4929C59.9886 37.8288 49.6805 37.8746 43.1929 31.6094L42.9707 31.3871H42.9672L30.0062 18.4297C26.7536 15.1771 21.4796 15.1771 18.227 18.4297C14.9745 21.6823 14.9745 26.9563 18.227 30.2088L31.1809 43.1627L31.1774 43.1663L42.9531 54.9419L42.9566 54.9384L42.9601 54.9419L49.2042 48.6978L54.7428 43.1627L66.4161 31.4929Z" fill="url(#paint0_linear_1761_380)"/>
<path d="M78.696 56.8491C77.8528 54.8666 76.7028 53.1662 75.2494 51.7515C73.7959 50.3369 72.092 49.2468 70.1377 48.4778C68.1833 47.7087 66.0878 47.3242 63.8477 47.3242C61.6287 47.3242 59.5403 47.7334 57.5859 48.5483C55.6315 49.3668 53.9206 50.4886 52.4601 51.9244C50.9961 53.3567 49.8425 55.0606 48.9994 57.0361C48.1562 59.0117 47.7329 61.1565 47.7329 63.4707C47.7329 65.7497 48.1562 67.8698 48.9994 69.8348C49.8425 71.7998 50.9996 73.5001 52.4601 74.9324C53.9241 76.3647 55.6315 77.4936 57.5859 78.3226C59.5403 79.1481 61.6287 79.5608 63.8477 79.5608C66.0878 79.5608 68.1833 79.1481 70.1377 78.3226C72.092 77.4971 73.7959 76.3682 75.2494 74.9324C76.7028 73.5001 77.8528 71.7998 78.696 69.8348C79.5391 67.8698 79.9624 65.7497 79.9624 63.4707C79.966 61.0401 79.5426 58.8317 78.696 56.8491ZM69.7355 69.3303C66.497 72.5688 61.1948 72.5688 57.9563 69.3303C54.7179 66.0919 54.7179 60.7896 57.9563 57.5512C61.1948 54.3127 66.497 54.3127 69.7355 57.5512C72.974 60.7896 72.974 66.0919 69.7355 69.3303Z" fill="#E85626"/>
<defs>
<linearGradient id="paint0_linear_1761_380" x1="15.7899" y1="35.4649" x2="66.415" y2="35.4649" gradientUnits="userSpaceOnUse">
<stop stop-color="#E85626"/>
<stop offset="1" stop-color="#AE2825"/>
</linearGradient>
</defs>
</svg>
