<svg id="Layer_1" data-name="Layer 1" xmlns="http://www.w3.org/2000/svg" xmlns:xlink="http://www.w3.org/1999/xlink" viewBox="0 0 99.21 70.87"><defs><style>.cls-1{fill:url(#radial-gradient);}.cls-2{fill:url(#radial-gradient-2);}.cls-3{fill:#60c5ba;}.cls-4{fill:#2370b8;}.cls-5{fill:url(#linear-gradient);}.cls-6{fill:url(#linear-gradient-2);}.cls-7{fill:#0b3854;}</style><radialGradient id="radial-gradient" cx="485.85" cy="251.03" r="12.84" gradientTransform="translate(-934.9 -472.5) scale(1.97 1.97)" gradientUnits="userSpaceOnUse"><stop offset="0" stop-color="#fff"/><stop offset="0.72" stop-color="#60c5ba"/><stop offset="1" stop-color="#4569b2"/></radialGradient><radialGradient id="radial-gradient-2" cx="331.24" cy="2839" r="24.71" gradientTransform="translate(-315.64 -2890.32) scale(1.03)" gradientUnits="userSpaceOnUse"><stop offset="0.41" stop-color="#fff" stop-opacity="0"/><stop offset="0.72" stop-color="#60c5ba"/><stop offset="1" stop-color="#4569b2"/></radialGradient><linearGradient id="linear-gradient" x1="18.89" y1="34.9" x2="19.83" y2="39.86" gradientTransform="translate(0 0)" gradientUnits="userSpaceOnUse"><stop offset="0" stop-color="#60c5ba"/><stop offset="1" stop-color="#2370b8"/></linearGradient><linearGradient id="linear-gradient-2" x1="25.51" y1="33.8" x2="20.11" y2="38.29" xlink:href="#linear-gradient"/></defs><title>Logo</title><path class="cls-1" d="M30.86,25.58A13.92,13.92,0,1,0,35,35.43,13.88,13.88,0,0,0,30.86,25.58Zm-.39,19.31c-3,3-9.64,1.18-14.87-4S8.58,29,11.57,26,21.21,24.79,26.44,30,33.46,41.9,30.47,44.89Z"/><path class="cls-2" d="M28.06,21.5a6.91,6.91,0,0,1,5,1.86c1.86,1.86,2.34,4.87,1.36,8.47A24.62,24.62,0,0,1,28,42.37a24.78,24.78,0,0,1-10.55,6.51c-3.6,1-6.6.49-8.46-1.37S6.6,42.64,7.58,39A24.75,24.75,0,0,1,14.09,28.5,24.69,24.69,0,0,1,24.63,22,13.19,13.19,0,0,1,28.06,21.5ZM14,49.18a13.16,13.16,0,0,0,3.37-.48,24.5,24.5,0,0,0,10.47-6.46,24.41,24.41,0,0,0,6.45-10.46c1-3.54.5-6.48-1.31-8.29s-4.76-2.28-8.29-1.32a24.47,24.47,0,0,0-10.46,6.46A24.53,24.53,0,0,0,7.76,39.09c-1,3.54-.49,6.48,1.32,8.29h0A6.73,6.73,0,0,0,14,49.18Z"/><circle class="cls-3" cx="14.15" cy="28.56" r="1.12"/><path class="cls-3" d="M16.9,35.39a.12.12,0,0,1,.09-.12l1.62-.45a2.69,2.69,0,0,0,1.9-1.89L21,31.31a.13.13,0,0,1,.12-.09v4.17Z"/><path class="cls-4" d="M21.07,31.22a.13.13,0,0,1,.12.09l.44,1.62a2.72,2.72,0,0,0,1.9,1.89l1.62.45a.12.12,0,0,1,.09.12H21.07Z"/><path class="cls-5" d="M21.07,35.39v4.16a.13.13,0,0,1-.12-.09l-.44-1.61a2.68,2.68,0,0,0-1.9-1.9L17,35.5a.11.11,0,0,1-.09-.11Z"/><path class="cls-6" d="M25.24,35.39a.11.11,0,0,1-.09.11L23.53,36a2.72,2.72,0,0,0-1.9,1.89l-.44,1.62a.13.13,0,0,1-.12.09V35.39Z"/><path class="cls-3" d="M50.41,41.14a5.4,5.4,0,0,1-2.86-.77,5.78,5.78,0,0,1-2.06-2,5.7,5.7,0,0,1,0-5.72,5.89,5.89,0,0,1,2.06-2.06,5.68,5.68,0,0,1,5.71,0,5.89,5.89,0,0,1,2.06,2.06,5.7,5.7,0,0,1,0,5.72,5.78,5.78,0,0,1-2.06,2A5.39,5.39,0,0,1,50.41,41.14Zm0-1.29a4.26,4.26,0,0,0,2.2-.59,4.49,4.49,0,0,0,1.59-1.59,4.43,4.43,0,0,0,0-4.42,4.49,4.49,0,0,0-1.59-1.59,4.42,4.42,0,0,0-4.41,0,4.65,4.65,0,0,0-1.59,1.59,4.43,4.43,0,0,0,0,4.42,4.65,4.65,0,0,0,1.59,1.59A4.27,4.27,0,0,0,50.41,39.85Z"/><path class="cls-3" d="M64.6,41.14H63.35V36.52a2.52,2.52,0,0,0-.49-1.64,1.84,1.84,0,0,0-1.54-.61,2.34,2.34,0,0,0-1.09.24,2.45,2.45,0,0,0-.79.62,3,3,0,0,0-.48.78,2.78,2.78,0,0,0-.2.79v4.44H57.51V33h1.25v1a3,3,0,0,1,.6-.48,3.18,3.18,0,0,1,.87-.39A3.94,3.94,0,0,1,61.37,33a3.07,3.07,0,0,1,2.35.92,3.48,3.48,0,0,1,.88,2.51Z"/><path class="cls-7" d="M69.5,41.14H66V29.77H69.5a5.26,5.26,0,0,1,2.71.72,5.41,5.41,0,0,1,1.94,1.95,5.11,5.11,0,0,1,.73,2.7v.63a5.11,5.11,0,0,1-.73,2.7,5.41,5.41,0,0,1-1.94,2A5.26,5.26,0,0,1,69.5,41.14Zm-.28-1.52a4.1,4.1,0,0,0,2.08-.53,4.15,4.15,0,0,0,1.5-1.41,3.6,3.6,0,0,0,.56-2v-.55a3.61,3.61,0,0,0-.56-2,4.15,4.15,0,0,0-1.5-1.41,4.2,4.2,0,0,0-2.08-.52H67.54v8.33Z"/><path class="cls-7" d="M80.25,41.14a4,4,0,0,1-2.07-.55,4.25,4.25,0,0,1-1.49-1.49,4.09,4.09,0,0,1,0-4.13,4.17,4.17,0,0,1,1.49-1.49,4,4,0,0,1,2.07-.56,3.54,3.54,0,0,1,2.54,1A4.26,4.26,0,0,1,84,36.56c0,.1,0,.23,0,.37v.87H77.81a2.55,2.55,0,0,0,.92,1.29,2.47,2.47,0,0,0,1.52.49,2.55,2.55,0,0,0,1.8-.74l.47-.46.92,1.29-.35.33A4.08,4.08,0,0,1,80.25,41.14Zm2.14-4.87a2.41,2.41,0,0,0-.77-1.33,2.08,2.08,0,0,0-1.37-.46,2.52,2.52,0,0,0-2.44,1.79Z"/><path class="cls-7" d="M91.2,31.62a.91.91,0,0,1-.66-.27.93.93,0,0,1,0-1.31.91.91,0,0,1,.66-.27.93.93,0,1,1,0,1.85Z"/><path class="cls-7" d="M91.16,33.22H86.9v-.93a1.12,1.12,0,0,1,1.87-.82l.09.08,1.13-1-.12-.11a2.67,2.67,0,0,0-4.47,2v.82h-.88v1.53h.83l.05,0v6.43h1.5V34.75h3.54v6.39H92V34A.8.8,0,0,0,91.16,33.22Z"/></svg>