<svg id="Layer_1" data-name="Layer 1" xmlns="http://www.w3.org/2000/svg" xmlns:xlink="http://www.w3.org/1999/xlink" viewBox="0 0 99.21 70.87"><defs><style>.cls-1{fill:#231f20;}.cls-2{fill:url(#linear-gradient);}.cls-3{fill:url(#linear-gradient-2);}.cls-4{fill:url(#linear-gradient-3);}</style><linearGradient id="linear-gradient" x1="76.99" y1="17.47" x2="43.81" y2="42.96" gradientUnits="userSpaceOnUse"><stop offset="0" stop-color="#6dcff6"/><stop offset="1" stop-color="#009784"/></linearGradient><linearGradient id="linear-gradient-2" x1="48.81" y1="23.42" x2="27.33" y2="43.45" gradientUnits="userSpaceOnUse"><stop offset="0" stop-color="#f9b617"/><stop offset="1" stop-color="#ee5b25"/></linearGradient><linearGradient id="linear-gradient-3" x1="36.46" y1="14.24" x2="54.14" y2="33.79" gradientUnits="userSpaceOnUse"><stop offset="0" stop-color="#fcb715"/><stop offset="1" stop-color="#f15b25"/></linearGradient></defs><title>Logo</title><path class="cls-1" d="M39.93,49.52a2.77,2.77,0,0,0-1.86.71,2.79,2.79,0,0,0-2.79-.55v-.22H33.42V57h1.86V52.31a.93.93,0,1,1,1.86,0V57H39V52.31a.93.93,0,1,1,1.86,0V57h1.85V52.31A2.78,2.78,0,0,0,39.93,49.52Z"/><path class="cls-1" d="M47.36,49.52A3.72,3.72,0,1,0,50,55.87l-1.31-1.32a1.86,1.86,0,0,1-2.93-.38H51a3.66,3.66,0,0,0,0-1.86A3.71,3.71,0,0,0,47.36,49.52Zm-1.61,2.79a1.86,1.86,0,0,1,3.22,0Z"/><path class="cls-1" d="M55.73,49.52a3.72,3.72,0,1,0,2.63,6.35L57,54.55a1.85,1.85,0,0,1-2.92-.38h5.21a3.66,3.66,0,0,0,0-1.86A3.72,3.72,0,0,0,55.73,49.52Zm-1.61,2.79a1.86,1.86,0,0,1,3.22,0Z"/><path class="cls-1" d="M64.1,54.17a.93.93,0,0,1-1.86,0V51.38H64.1V49.52H62.24V47.66H60.38v6.51a2.79,2.79,0,1,0,5.57,0Z"/><path class="cls-2" d="M68.22,18.56a2.33,2.33,0,1,0-2.33-2.33A2.33,2.33,0,0,0,68.22,18.56Zm0,1.16a2.33,2.33,0,0,0-2.33,2.33V36h0a2.32,2.32,0,0,1-2.32,2.33h0A2.33,2.33,0,0,1,61.24,36h0V26.7A7,7,0,0,0,48.8,22.36a14.51,14.51,0,0,1,3.1,8.17c0-.05,0-.11,0-.17,0,.33,0,.66,0,1h0V26.7a2.33,2.33,0,0,1,4.66,0V36h0a7,7,0,0,0,7,7h0a7,7,0,0,0,7-7h0v-14A2.34,2.34,0,0,0,68.22,19.72Z"/><path class="cls-3" d="M40.3,24.38a7,7,0,0,1,6.86,5.73,6.28,6.28,0,0,1,.75,0,6.94,6.94,0,0,1,4,1.27A11.63,11.63,0,1,0,40.3,43a11.64,11.64,0,0,0,8.06-3.25,11.6,11.6,0,0,0,3.57-8.38h0a7,7,0,0,0-5,2.08,7,7,0,0,1-5.91,4.86c-.25,0-.5,0-.75,0a7,7,0,1,1,0-14Z"/><path class="cls-4" d="M52,31.36l0,0v0Z"/></svg>