<svg id="Layer_1" data-name="Layer 1" xmlns="http://www.w3.org/2000/svg" viewBox="0 0 99.21 70.87"><defs><style>.cls-1{fill:#42c3d2;}.cls-2{fill:#3ac2d8;}.cls-3{fill:#fec015;}.cls-4{fill:#4e4e50;}</style></defs><title>Logo</title><path class="cls-1" d="M29.56,35.38h0v0Z"/><path class="cls-2" d="M29.24,32.67l.15-.21,1.38-2.1L29,32.13a40.15,40.15,0,0,1-4.79,4,46.46,46.46,0,0,1-5.34,3.3c-.93.48-1.87.94-2.82,1.37s-1.93.83-2.91,1.2a45,45,0,0,1-6,1.84l.55-.09-.55.09A12.39,12.39,0,0,1,11.72,45h0a11,11,0,0,0,1.86,1,11.4,11.4,0,0,0,4.46.86,11.1,11.1,0,0,0,4.45-.9,11.62,11.62,0,0,0,6.15-6.13,11.3,11.3,0,0,0,.89-4.45,11.05,11.05,0,0,0-.11-1.54,9.45,9.45,0,0,0-.18-1.15M25.11,40A9.25,9.25,0,0,1,24,41.42a8.57,8.57,0,0,1-2.64,1.85,8.39,8.39,0,0,1-6.57,0,8.58,8.58,0,0,1-1.58-.92h0a44.15,44.15,0,0,0,5.86-2.44l.21-.11.33-.14c.53-.24,1.06-.47,1.58-.73l.91-.47.58-.22a5,5,0,0,1,2.17-.3.71.71,0,0,1,.65.62,2.68,2.68,0,0,1-.4,1.41"/><path class="cls-3" d="M14.25,29.62q-.66,2.49-1.21,5l-.15.72.72-.05c.78,0,1.56-.1,2.34-.16l.21,0,.12-.13c.35-.39.69-.78,1-1.18s.68-.78,1-1.18.66-.81,1-1.22.65-.83,1-1.25c-.42.32-.82.65-1.22,1s-.8.67-1.18,1l-1.16,1-1,.93-1.44,0,1.81-7.08a8.18,8.18,0,0,1,3.23-.19,7.65,7.65,0,0,1,2.06.55,8,8,0,0,1,2.48,1.63l.22.2a8.84,8.84,0,0,1,1.14,1.46l.05,0,0,.05,0,0-.12.12a21.65,21.65,0,0,1-7.41,6,29.93,29.93,0,0,0,8.45-4.15l0,0a15.92,15.92,0,0,0,2.4-2.08h0a11.83,11.83,0,0,0-6.13-5.83,10.93,10.93,0,0,0-4.43-.85,11.14,11.14,0,0,0-1.17.07v0l-.63.11v0l-.72.14-.37,1.56-6.43-1,6,3Z"/><path class="cls-2" d="M40.34,30.08a4.85,4.85,0,0,0-1.53-1,4.57,4.57,0,0,0-1.87-.38,4.73,4.73,0,0,0-1.75.33,4.54,4.54,0,0,0-1.51.93l-.91-1.05h-.66V39.67h2.75V33.5a2,2,0,0,1,.16-.8,2.31,2.31,0,0,1,.44-.66,2.23,2.23,0,0,1,.67-.44,2,2,0,0,1,.81-.16,1.94,1.94,0,0,1,.8.16,2,2,0,0,1,1.1,1.1,2,2,0,0,1,.16.8v6.17h2.75V33.5a4.7,4.7,0,0,0-.38-1.87,4.83,4.83,0,0,0-1-1.55"/><rect class="cls-2" x="43.7" y="28.88" width="2.77" height="10.79"/><path class="cls-3" d="M46.4,24.65a2,2,0,0,0-.58-.39,1.83,1.83,0,0,0-1.45,0,2,2,0,0,0-.58.39,1.84,1.84,0,0,0-.39.59,1.83,1.83,0,0,0,.39,2,1.82,1.82,0,0,0,.58.4,1.95,1.95,0,0,0,1.45,0,1.82,1.82,0,0,0,.58-.4,1.78,1.78,0,0,0,.4-2,1.87,1.87,0,0,0-.4-.59"/><path class="cls-2" d="M51.56,32.13a2.48,2.48,0,0,1,.86-.65,2.45,2.45,0,0,1,1.07-.23,2.54,2.54,0,0,1,.78.12,2.61,2.61,0,0,1,.71.35,2.89,2.89,0,0,1,.59.57,2.69,2.69,0,0,1,.42.76l2-2a4.87,4.87,0,0,0-.86-1.09,5.27,5.27,0,0,0-1.09-.8,5.12,5.12,0,0,0-1.24-.5,4.88,4.88,0,0,0-1.32-.17,5,5,0,0,0-2.14.46,5.67,5.67,0,0,0-1.76,1.26A6.11,6.11,0,0,0,48,34.39a5.31,5.31,0,0,0,.43,2.14,5.64,5.64,0,0,0,1.18,1.74,5.42,5.42,0,0,0,1.76,1.17,5.28,5.28,0,0,0,2.14.43,5.66,5.66,0,0,0,1.31-.15A5.78,5.78,0,0,0,56,39.26a5.3,5.3,0,0,0,1.08-.74,5.14,5.14,0,0,0,.88-1l-2-2a2.84,2.84,0,0,1-.42.66,2.34,2.34,0,0,1-.59.5,2.61,2.61,0,0,1-.7.32,2.81,2.81,0,0,1-.77.11,2.76,2.76,0,0,1-1.07-.21,2.59,2.59,0,0,1-.86-.59,2.56,2.56,0,0,1-.58-.86,2.67,2.67,0,0,1-.21-1.06A3.68,3.68,0,0,1,51,33.12a3,3,0,0,1,.58-1"/><path class="cls-2" d="M68,30a5.13,5.13,0,0,0-1.74-1.15,5.52,5.52,0,0,0-2.15-.41A5.36,5.36,0,0,0,62,28.9a5.71,5.71,0,0,0-1.75,1.19A5.62,5.62,0,0,0,59,31.9a5.9,5.9,0,0,0-.44,2.28A5.75,5.75,0,0,0,59,36.43a5.46,5.46,0,0,0,1.18,1.8A5.57,5.57,0,0,0,62,39.43a5.47,5.47,0,0,0,4.3,0,5.55,5.55,0,0,0,2.92-3,5.75,5.75,0,0,0,.44-2.25,6.06,6.06,0,0,0-.44-2.34A5.51,5.51,0,0,0,68,30m-1.37,5.35a2.8,2.8,0,0,1-.59.92,2.61,2.61,0,0,1-.87.6,2.71,2.71,0,0,1-1.06.21A2.45,2.45,0,0,1,63,36.88a2.53,2.53,0,0,1-.86-.62,2.82,2.82,0,0,1-.58-.92,3.15,3.15,0,0,1-.21-1.16,3.25,3.25,0,0,1,.21-1.2,2.76,2.76,0,0,1,.58-.93,2.47,2.47,0,0,1,.86-.6,3,3,0,0,1,1.07-.2,2.89,2.89,0,0,1,1.06.2,2.61,2.61,0,0,1,.87.6,3,3,0,0,1,.59.93,3.25,3.25,0,0,1,.22,1.2,3.29,3.29,0,0,1-.22,1.2"/><path class="cls-2" d="M74.21,29.23a4.89,4.89,0,0,0-1.51.93l-.91-1.28h-.66V39.67h2.75V33.73a2.12,2.12,0,0,1,.6-1.49,2.23,2.23,0,0,1,.67-.44,2,2,0,0,1,.81-.16h2.43V28.9H76a4.77,4.77,0,0,0-1.75.33"/><path class="cls-2" d="M88.93,31.63a4.83,4.83,0,0,0-1-1.55,4.74,4.74,0,0,0-1.53-1,4.52,4.52,0,0,0-1.86-.38,4.78,4.78,0,0,0-1.76.33,4.64,4.64,0,0,0-1.51.93l-.9-1.05h-.67V39.67h2.75V33.5a2,2,0,0,1,.16-.8A2.15,2.15,0,0,1,83,32a2.18,2.18,0,0,1,.66-.44,2.07,2.07,0,0,1,.82-.16,1.92,1.92,0,0,1,.79.16A2.31,2.31,0,0,1,86,32a2.12,2.12,0,0,1,.44.66,2,2,0,0,1,.16.8v6.17h2.75V33.5a4.53,4.53,0,0,0-.38-1.87"/><polygon class="cls-4" points="78.66 43.36 78.66 46.88 78.33 46.88 78.33 43.98 77.03 46.88 76.88 46.88 75.59 43.98 75.59 46.88 75.27 46.88 75.27 43.36 75.63 43.36 76.96 46.32 78.29 43.36 78.66 43.36"/><path class="cls-4" d="M81.92,45.71H79.67a1,1,0,0,0,1,.95,1,1,0,0,0,.84-.47l.25.11a1.25,1.25,0,0,1-1.09.63,1.26,1.26,0,1,1,1.26-1.29Zm-2.22-.24h1.91a1,1,0,0,0-1.91,0"/><path class="cls-4" d="M82.31,45.67a1.25,1.25,0,0,1,1.23-1.26,1.15,1.15,0,0,1,1,.53V43.36h.3v3.52h-.3V46.4a1.15,1.15,0,0,1-1,.53,1.26,1.26,0,0,1-1.23-1.26m2.23,0a1,1,0,0,0-1-1,1,1,0,1,0,1,1"/><path class="cls-4" d="M85.6,43.54a.24.24,0,1,1,.23.23.23.23,0,0,1-.23-.23m.09.91H86v2.43h-.29Z"/><path class="cls-4" d="M86.62,45.67a1.25,1.25,0,0,1,1.23-1.26,1.18,1.18,0,0,1,1,.53v-.49h.29v2.43h-.29V46.4a1.18,1.18,0,0,1-1,.53,1.26,1.26,0,0,1-1.23-1.26m2.24,0a1,1,0,1,0-1,1,1,1,0,0,0,1-1"/><path class="cls-4" d="M90.34,27.76h-.63v.9h-.19V26.49h.71a1,1,0,0,1,.3,0,.9.9,0,0,1,.24.12.56.56,0,0,1,.14.2.64.64,0,0,1,.06.28.65.65,0,0,1,0,.2.56.56,0,0,1-.09.17.57.57,0,0,1-.14.13.66.66,0,0,1-.19.09l.55.92v0h-.2Zm-.63-.16h.56a.51.51,0,0,0,.22,0,.37.37,0,0,0,.16-.1.4.4,0,0,0,.1-.15.57.57,0,0,0,0-.18.42.42,0,0,0,0-.2.31.31,0,0,0-.1-.15.4.4,0,0,0-.18-.1.75.75,0,0,0-.23,0h-.52Z"/><path class="cls-4" d="M90.22,29.44a1.91,1.91,0,1,1,1.91-1.9A1.9,1.9,0,0,1,90.22,29.44Zm0-3.63A1.73,1.73,0,1,0,92,27.54,1.72,1.72,0,0,0,90.22,25.81Z"/></svg>