<svg id="Layer_1" data-name="Layer 1" xmlns="http://www.w3.org/2000/svg" xmlns:xlink="http://www.w3.org/1999/xlink" viewBox="0 0 99.21 70.87"><defs><style>.cls-1{fill:#09a5ae;}.cls-2{fill:url(#linear-gradient);}.cls-3{fill:#010101;}</style><linearGradient id="linear-gradient" x1="38.9" y1="11.42" x2="45.74" y2="47.49" gradientUnits="userSpaceOnUse"><stop offset="0" stop-color="#09a5ae"/><stop offset="1" stop-color="#183f4b"/></linearGradient></defs><title>Logo</title><polygon class="cls-1" points="49.61 26.48 49.61 26.48 53.15 30.02 56.69 26.48 53.15 22.93 49.61 26.48"/><polygon class="cls-1" points="63.78 26.48 60.24 22.93 56.69 26.48 60.24 30.02 56.69 33.56 60.24 37.11 63.78 33.56 67.33 30.02 63.78 26.48"/><polygon class="cls-1" points="53.15 44.2 56.69 40.65 53.15 37.11 49.61 40.65 49.61 47.74 53.15 44.2"/><polygon class="cls-1" points="56.69 19.39 53.15 15.84 49.61 12.3 49.61 19.39 53.15 22.93 56.69 19.39"/><path class="cls-2" d="M39,30l3.55-3.55L39,22.93,31.89,30,39,37.11l3.55-3.55Zm7.09-14.18-3.54,3.55,3.54,3.54,3.55-3.54V12.3ZM42.52,40.65l3.54,3.54,3.55,3.55V40.65l-3.55-3.54Z"/><path class="cls-3" d="M17.39,52.76c2.25,0,3.38.86,3.53,2.49H19.44C19.3,54.34,18.6,54,17.39,54c-1.47,0-2.09.53-2.09,1.68s.63,1.69,2.09,1.69c1.2,0,1.91-.36,2.05-1.28h1.48c-.15,1.63-1.28,2.5-3.53,2.5-2.48,0-3.54-1-3.54-2.91S14.91,52.76,17.39,52.76Z"/><path class="cls-3" d="M21.36,55.66c0-1.87,1.06-2.9,3.54-2.9s3.55,1,3.55,2.9-1.07,2.91-3.55,2.91S21.36,57.54,21.36,55.66Zm5.64,0c0-1.15-.58-1.68-2.1-1.68s-2.09.53-2.09,1.68.59,1.69,2.09,1.69S27,56.81,27,55.66Z"/><path class="cls-3" d="M34.34,56.81l1,1.68H33.67L32.76,57H30.43v1.51H29V52.84h4.44a2,2,0,0,1,2.16,2.08A1.93,1.93,0,0,1,34.34,56.81Zm-3.91-1.05H33c.44,0,1.12,0,1.12-.84s-.68-.86-1.12-.86H30.43Z"/><path class="cls-3" d="M37.49,54v1.14H42v1H37.49v1.14H42v1.16H36V52.84h6V54Z"/><path class="cls-3" d="M50.14,52.84l-2.9,5.65h-2l-2.9-5.65H44l2.27,4.57,2.26-4.57Z"/><path class="cls-3" d="M51.94,54v1.14h4.51v1H51.94v1.14h4.51v1.16h-6V52.84h6V54Z"/><path class="cls-3" d="M58.34,56.54c0,.6.49.87,2.32.87,1.53,0,2-.16,2-.61s-.33-.55-2.16-.63c-2.45-.12-3.43-.5-3.43-1.77s1.27-1.64,3.38-1.64,3.42.54,3.42,1.93H62.4c0-.62-.62-.77-2.12-.77s-1.77.13-1.77.55.34.52,2,.62c2.23.12,3.61.24,3.61,1.66s-1.43,1.82-3.52,1.82c-2.31,0-3.69-.4-3.69-2Z"/><path class="cls-3" d="M71,54.06H68.29v4.43H66.84V54.06H64.1V52.84H71Z"/><path class="cls-3" d="M71.16,55.66c0-1.87,1.06-2.9,3.54-2.9s3.55,1,3.55,2.9-1.07,2.91-3.55,2.91S71.16,57.54,71.16,55.66Zm5.64,0c0-1.15-.58-1.68-2.1-1.68s-2.09.53-2.09,1.68.59,1.69,2.09,1.69S76.8,56.81,76.8,55.66Z"/><path class="cls-3" d="M84.14,56.81l1,1.68H83.47L82.56,57H80.22v1.51H78.77V52.84h4.44a2,2,0,0,1,2.16,2.08A1.93,1.93,0,0,1,84.14,56.81Zm-3.92-1.05H82.8c.44,0,1.11,0,1.11-.84s-.67-.86-1.11-.86H80.22Z"/></svg>